# xmcd
#
# Track frame offsets:
#	150
#	18578
#	39196
#	60097
#	89695
#
# Disc length: 1201 seconds
#
# Revision: 1
# Processed by: cddbd v1.5.1PL0 Copyright (c) Steve Scherf et al.
# Submitted via: CDex 1.50Beta5
#
DISCID=3104af05
DTITLE=スネオヘアー - ノーパンライフ
DYEAR=1900
DGENRE=Pop
TTITLE0=現在位置
TTITLE1=自然体
TTITLE2=そうさせてもらうぜ
TTITLE3=このままこうして
TTITLE4=データ トラック
EXTD=
EXTT0=
EXTT1=
EXTT2=
EXTT3=
EXTT4=
PLAYORDER=
